<svg width="100" height="100" viewBox="0 0 100 100" fill="none" xmlns="http://www.w3.org/2000/svg">
<path d="M86.7188 38.6625L81.1562 32.1625C83.1565 31.0722 84.8111 29.4432 85.9324 27.4603C87.0537 25.4773 87.5968 23.2197 87.5 20.9437C87.2188 14.6625 82.0625 9.56874 75.7813 9.38124C73.4642 9.31062 71.1751 9.90228 69.1824 11.0868C67.1898 12.2713 65.5763 13.9995 64.5313 16.0687C61.8 14.6341 58.8697 13.6155 55.8375 13.0469L50.0125 15.7344L44.1625 13.0469C41.1303 13.6156 38.2 14.6341 35.4688 16.0687C34.4298 13.9946 32.8176 12.2621 30.8235 11.0768C28.8295 9.89141 26.5372 9.30296 24.2188 9.38124C17.9375 9.59999 12.7813 14.6625 12.5 20.9437C12.4039 23.2159 12.9439 25.4698 14.0591 27.4518C15.1743 29.4338 16.8205 31.0652 18.8125 32.1625L13.2813 38.6625C10.5041 41.915 8.47885 45.7404 7.35 49.8656L12.8406 57.8L6.82812 62.7531L13.8156 71.8531L7.37813 75.3719C8.49317 78.0403 10.3725 80.3195 12.7796 81.9226C15.1867 83.5257 18.0142 84.3811 20.9063 84.3812H79.0938C85.1875 84.3812 90.4094 80.6625 92.6219 75.3719L89.0625 70.3125L93.0656 62.8281L90.625 57.8125L92.6938 49.9125C91.5476 45.7711 89.5081 41.9311 86.7188 38.6625V38.6625Z" fill="#FF822D"/>
<path d="M25.625 24.1937L21.9688 28.475C20.5635 27.9289 19.3555 26.9717 18.5026 25.7285C17.6496 24.4854 17.1913 23.0139 17.1875 21.5062C17.1875 17.4125 20.5313 14.0687 24.625 14.0687C27.6875 14.0687 30.3438 15.9437 31.4375 18.6312C29.2813 20.225 27.3125 22.1 25.625 24.1937ZM78 28.4437L74.3438 24.1625C72.6479 22.0603 70.6832 20.1901 68.5 18.6C69.625 15.9437 72.2813 14.0687 75.3438 14.0687C79.4375 14.0687 82.7812 17.4125 82.7812 21.5062C82.7812 24.6625 80.8125 27.3812 78 28.4437V28.4437Z" fill="#FF6723"/>
<path d="M50 93.7562C37.9063 93.7562 28.125 83.975 28.125 71.8812V65.6312H71.875V71.8812C71.875 83.975 62.0937 93.7562 50 93.7562Z" fill="#E1D8EC"/>
<path d="M62.5 56.2562H37.5C32.3125 56.2562 28.125 60.4437 28.125 65.6312C28.125 70.8187 32.3125 75.0062 37.5 75.0062H42.1875C43.7341 75.0068 45.2568 74.6247 46.6199 73.8941C47.983 73.1635 49.1442 72.107 50 70.8187C50.8558 72.107 52.017 73.1635 53.3801 73.8941C54.7432 74.6247 56.2659 75.0068 57.8125 75.0062H62.5C67.6875 75.0062 71.875 70.8187 71.875 65.6312C71.875 60.4437 67.6875 56.2562 62.5 56.2562Z" fill="#F3EEF8"/>
<path d="M25.25 54.9125L36.0625 61.1625C36.8125 61.6 37.0625 62.5375 36.625 63.2875C36.1875 64.0375 35.25 64.2875 34.5 63.85L23.6875 57.6C23.5096 57.4987 23.3538 57.363 23.229 57.2009C23.1042 57.0387 23.0129 56.8533 22.9605 56.6555C22.9082 56.4576 22.8957 56.2514 22.924 56.0487C22.9522 55.846 23.0205 55.651 23.125 55.475C23.5625 54.725 24.5 54.475 25.25 54.9125ZM34.4687 67.4125L23.6562 73.6625C22.9375 74.1 22.6562 75.0375 23.0937 75.7875C23.5312 76.5375 24.4687 76.7875 25.2187 76.35L36.0312 70.1C36.7812 69.6625 37.0312 68.725 36.5937 67.975C36.4924 67.7972 36.3568 67.6413 36.1946 67.5165C36.0324 67.3917 35.847 67.3004 35.6492 67.248C35.4514 67.1957 35.2451 67.1833 35.0424 67.2115C34.8397 67.2397 34.6447 67.308 34.4687 67.4125ZM63.9375 61.1625L74.75 54.9125C75.5 54.475 76.4375 54.725 76.875 55.475C77.3125 56.225 77.0625 57.1625 76.3125 57.6L65.5 63.85C64.75 64.2875 63.8125 64.0375 63.375 63.2875C63.2705 63.1115 63.2022 62.9165 63.174 62.7138C63.1457 62.5111 63.1582 62.3048 63.2105 62.107C63.2629 61.9092 63.3542 61.7238 63.479 61.5616C63.6038 61.3994 63.7596 61.2638 63.9375 61.1625V61.1625ZM65.5312 67.4125L76.3437 73.6625C77.0625 74.1 77.3437 75.0375 76.9062 75.7875C76.4687 76.5375 75.5312 76.7875 74.7812 76.35L63.9687 70.1C63.7909 69.9987 63.635 69.863 63.5102 69.7009C63.3854 69.5387 63.2941 69.3533 63.2418 69.1555C63.1894 68.9576 63.177 68.7514 63.2052 68.5487C63.2335 68.346 63.3018 68.151 63.4062 67.975C63.8437 67.225 64.7812 66.975 65.5312 67.4125Z" fill="#CDC4D6"/>
<path d="M55.9062 13.0688C53.9604 12.69 51.9823 12.5016 50 12.5062C47.9688 12.5062 46 12.6938 44.0937 13.0688L47.75 16.975C48.9687 18.2563 51 18.2563 52.1875 16.975L55.9062 13.0688ZM58.9063 23.4438H41.0937C39.9062 23.4438 39.4062 24.9125 40.3125 25.6625L48.75 32.4125C49.5 33.0062 50.5312 33.0062 51.25 32.4125L59.6875 25.6625C60.5938 24.9125 60.0938 23.4438 58.9063 23.4438V23.4438ZM20.9375 71.5375L8.03125 62.9438H19.75C21.8438 62.9438 22.6875 60.225 20.9375 59.0375L7.34375 49.8813C6.625 52.3813 6.25 55.0375 6.25 57.6938V69.725C6.25 71.7563 6.65625 73.6625 7.40625 75.4125H19.75C21.8438 75.4125 22.6875 72.6938 20.9375 71.5375V71.5375ZM92.5937 75.4125C93.3437 73.6625 93.75 71.7563 93.75 69.725V57.6938C93.75 55.0375 93.375 52.4125 92.6875 49.8813L79.0625 59.0063C77.3125 60.1625 78.125 62.9125 80.25 62.9125H91.9688L79.0625 71.5063C77.3125 72.6625 78.125 75.4125 80.25 75.4125H92.5937ZM37.5 43.75C36.6712 43.75 35.8763 44.0792 35.2903 44.6653C34.7042 45.2513 34.375 46.0462 34.375 46.875V50C34.375 50.8288 34.7042 51.6237 35.2903 52.2097C35.8763 52.7958 36.6712 53.125 37.5 53.125C38.3288 53.125 39.1237 52.7958 39.7097 52.2097C40.2958 51.6237 40.625 50.8288 40.625 50V46.875C40.625 46.0462 40.2958 45.2513 39.7097 44.6653C39.1237 44.0792 38.3288 43.75 37.5 43.75ZM62.5 43.75C61.6712 43.75 60.8763 44.0792 60.2903 44.6653C59.7042 45.2513 59.375 46.0462 59.375 46.875V50C59.375 50.8288 59.7042 51.6237 60.2903 52.2097C60.8763 52.7958 61.6712 53.125 62.5 53.125C63.3288 53.125 64.1237 52.7958 64.7097 52.2097C65.2958 51.6237 65.625 50.8288 65.625 50V46.875C65.625 46.0462 65.2958 45.2513 64.7097 44.6653C64.1237 44.0792 63.3288 43.75 62.5 43.75ZM43.375 61.9125L47.6875 66.225C48.9688 67.5062 51.0625 67.5062 52.375 66.225L56.6875 61.9125C58.7812 59.8188 57.2812 56.2563 54.3437 56.2563H45.75C42.75 56.2563 41.2813 59.8188 43.375 61.9125V61.9125Z" fill="#212121"/>
</svg>
