<svg width="100" height="100" viewBox="0 0 100 100" fill="none" xmlns="http://www.w3.org/2000/svg">
<path d="M34.5314 14.5313C34.5314 23.2813 29.0626 30.4687 22.3439 30.3125C2.65636 29.8437 10.7814 3.125 10.7814 3.125C17.5001 3.125 34.5314 5.78125 34.5314 14.5313Z" fill="#F29A2E"/>
<path d="M27.0311 16.25C27.0311 20.9375 24.0624 24.6875 20.4687 24.6875C9.9999 24.375 14.2187 10.1562 14.2187 10.1562C17.9687 10.1562 27.0311 11.5625 27.0311 16.25Z" fill="#BC600D"/>
<path d="M65.4688 14.5313C65.4688 23.2813 70.9375 30.4687 77.6562 30.3125C97.3437 29.8437 89.2187 3.125 89.2187 3.125C82.5 3.125 65.4688 5.78125 65.4688 14.5313" fill="#F29A2E"/>
<path d="M72.9688 16.25C72.9688 20.9375 75.9375 24.6875 79.5313 24.6875C90 24.375 85.7813 10.1562 85.7813 10.1562C82.0313 10.1562 72.9688 11.5625 72.9688 16.25Z" fill="#BC600D"/>
<path d="M90.625 65.1563C90.625 79.375 9.375 79.375 9.375 65.1563C9.375 5.93752 32.6562 7.50002 50 7.50002C67.3438 7.50002 90.625 5.93752 90.625 65.1563" fill="#F29A2E"/>
<path d="M66.4062 19.6875C62.8125 6.09377 37.1875 5.78127 33.75 19.8438C40.7812 13.5938 59.2187 13.5938 66.4062 19.6875Z" fill="#3E4347"/>
<path d="M61.25 25C58.9063 15.7813 41.25 15.625 38.9062 25C44.6875 20 55.3125 20 61.25 25Z" fill="#3E4347"/>
<path d="M96.875 57.1875C96.5625 42.8125 87.8125 35.625 87.8125 35.625C87.8125 35.625 93.125 88.5938 61.875 62.9688H37.9687C6.875 88.4375 12.1875 35.625 12.1875 35.625C12.1875 35.625 3.4375 42.8125 3.125 57.1875L7.34375 54.6875C7.34375 54.6875 2.96875 64.2188 7.65625 75.9375L12.1875 70.625C12.1875 70.625 13.4375 81.7188 25.4687 87.3438L26.0938 82.5C26.0938 82.5 35.1562 89.6875 50 89.6875C64.8438 89.6875 73.9062 82.5 73.9062 82.5L74.5313 87.3438C86.5625 81.7188 87.8125 70.625 87.8125 70.625L92.3437 75.9375C97.1875 64.2188 92.6562 54.6875 92.6562 54.6875L96.875 57.1875Z" fill="#FFE8BB"/>
<path d="M37.9689 62.9688C37.9689 62.9688 11.5626 82.8125 12.0314 35.625C12.1876 35.625 5.78139 91.7187 37.9689 62.9688ZM62.0314 62.9688C62.0314 62.9688 88.4376 82.8125 87.9689 35.625C87.8126 35.625 94.2189 91.7187 62.0314 62.9688" fill="#3E4347"/>
<path d="M58.7499 45.9375C63.4374 58.75 61.8749 62.8125 61.8749 62.8125L50.1562 66.25L37.8124 62.8125C37.8124 62.8125 36.2499 58.5938 40.9374 45.9375C20.3124 80.1562 39.6874 84.6875 39.6874 84.6875C39.6874 84.6875 38.7499 90.3125 44.6874 95V91.25C44.6874 91.25 45.9374 94.6875 49.6874 96.7188C53.4374 94.6875 54.6874 91.25 54.6874 91.25V95C57.9687 93.125 59.0624 89.2187 59.0624 89.2187L60.4687 92.0313C65.1562 85.3125 63.4374 80.625 62.0312 78.4375C62.0312 78.5938 62.1874 78.5937 62.1874 78.5937C62.1874 78.5937 79.3749 80.1562 58.7499 45.9375" fill="#F5F5F5"/>
<path d="M50 78.2812C49.5313 76.875 48.4375 69.8437 48.5938 65.4688H51.25C51.0938 69.375 52.1875 76.4062 52.5 77.3437L50 78.2812" fill="#3E4347"/>
<path d="M40 84.8437C50.625 74.2187 58.2812 70.9375 62.5 78.75C56.0937 73.75 48.75 82.8125 40 84.8437Z" fill="#3E4347"/>
<path d="M61.5624 62.1875C57.0311 60.1562 42.6561 60.3125 38.2811 62.1875C36.5624 62.9687 41.4061 67.6562 49.8436 67.6562C58.5936 67.6562 63.2811 62.9687 61.5624 62.1875Z" fill="#947151"/>
<path d="M42.6562 43.125C39.2187 65 14.0625 59.5312 14.0625 40.4687C14.0625 30.3125 14.0625 30.3125 29.8437 26.875C45.7812 23.2812 44.0625 35 42.6562 43.125Z" fill="#FFE8BB"/>
<path d="M40.1562 44.2187C38.5937 59.6875 15.7812 57.1875 17.1874 41.7187C17.8124 35.7812 17.8124 35.1562 29.2187 36.4062C40.7812 37.6562 40.6249 38.2812 40.1562 44.2187Z" fill="#3E4347"/>
<path d="M36.7188 43.2813C35.6251 52.6563 19.5313 51.25 20.6251 41.875C21.0938 38.4375 21.0938 38.125 29.0626 38.9063C37.1876 39.6875 37.1876 39.8438 36.7188 43.2813" fill="white"/>
<path d="M35.4688 41.4063C35.4688 43.5938 33.75 45.3125 31.7187 45.3125C29.6875 45.3125 27.9688 43.5938 27.9688 41.4063C27.9688 39.2188 29.6875 37.9688 31.7187 37.9688C33.75 37.9688 35.4688 39.375 35.4688 41.4063Z" fill="#3E4347"/>
<path d="M57.1875 43.125C60.625 64.8438 85.7812 59.5313 85.7812 40.3125C85.7812 30.1563 85.7812 30.1563 70 26.7188C54.2187 23.2813 55.9375 35 57.1875 43.125" fill="#FFE8BB"/>
<path d="M59.8439 44.2187C61.4064 59.6875 84.2189 57.1875 82.8127 41.7187C82.1877 35.7812 82.1877 35.1562 70.7814 36.4062C59.2189 37.6562 59.2189 38.2812 59.8439 44.2187Z" fill="#3E4347"/>
<path d="M63.125 43.2813C64.2188 52.6563 80.3125 51.25 79.2188 41.875C78.75 38.4375 78.75 38.125 70.7813 38.9063C62.8125 39.6875 62.8125 39.8438 63.125 43.2813" fill="white"/>
<path d="M70.625 41.4063C70.625 43.5938 72.3437 45.3125 74.375 45.3125C76.4062 45.3125 78.125 43.5938 78.125 41.4063C78.125 39.2188 76.4062 37.9688 74.375 37.9688C72.3437 37.9688 70.625 39.375 70.625 41.4063Z" fill="#3E4347"/>
</svg>
