<svg width="412" height="414" viewBox="0 0 412 414" fill="none" xmlns="http://www.w3.org/2000/svg">
<g filter="url(#filter0_d_166_241)">
<circle cx="206" cy="200" r="200" fill="#FFDEA7" fill-opacity="0.3" shape-rendering="crispEdges"/>
<circle cx="206" cy="200" r="197.5" stroke="#7A4419" stroke-width="5" shape-rendering="crispEdges"/>
</g>
<path d="M296.938 224.525L299.75 214.25L296.938 206.622C296.321 205.515 295.998 204.268 296 203V195.5L288.5 191.75L281 195.5V203C281 213.095 287.735 221.69 296.938 224.525ZM281 180.5L288.5 184.25L296 180.5V165.5L288.5 161.75L281 165.5V180.5ZM273.5 150.5L288.5 154.25L294.71 150.5C293.148 146.121 290.273 142.331 286.477 139.646C282.681 136.962 278.149 135.514 273.5 135.5H267.35C263.225 135.5 259.85 138.875 259.85 143C259.85 147.125 263.225 150.5 267.35 150.5H273.5ZM201.425 245.075L187.25 191.9H164.75L175.775 233.225C174.608 233.52 173.55 234.143 172.726 235.02C171.902 235.897 171.346 236.992 171.125 238.175L169.85 245.525C169.625 246.8 170.6 248 171.95 248H199.175C200.75 248 201.875 246.575 201.425 245.075ZM213.275 233L224.3 191.9H246.65L232.4 245.225C231.95 246.875 230.525 248 228.8 248H207.5C206.075 248 205.025 246.725 205.25 245.3L206.525 238.175C207.05 235.175 209.675 233 212.675 233H213.275Z" fill="#FF6723"/>
<path d="M266.3 135.5C270.875 135.5 275.15 137.6 277.925 141.2C279.95 143.75 281 146.975 281.075 150.2V193.85C281.075 199.925 280.1 205.925 278.15 211.7L266.9 245.45C266.45 246.95 265.025 248 263.375 248H239.225C237.575 248 236.375 246.5 236.75 244.925L238.25 238.925C239.075 235.475 242.225 233 245.825 233H247.475L249.493 225.5L254.75 221.75L247.7 218L240.2 210.5L239.75 206.75L232.7 203H168.35V245.675C168.35 246.95 167.3 248 166.025 248H141.65C139.925 248 138.5 246.575 138.5 244.85V240.35C138.5 236.3 141.8 233 145.925 233V225.5L149.75 221.75L145.925 218V200.225C137.075 195.8 138.5 183.605 138.5 173.105V150.2L112.1 141.2L116 120.5C116 120.2 123.725 111.05 129.2 104.525C132.725 100.4 137.825 98 143.3 98H145.925V94.25C145.925 88.025 150.95 83 157.175 83C163.4 83 168.425 88.025 168.425 94.25V108.95C168.425 111.5 169.475 114.05 171.275 115.85L183.5 128.075L191 139.25L198.5 135.5H213.5L221 139.25L228.5 135.5H243.5L251 139.25L258.5 135.5H266.3Z" fill="#FF822D"/>
<path d="M161 98V94.25C161 92.15 159.35 90.5 157.25 90.5C155.15 90.5 153.5 92.15 153.5 94.25V98H161Z" fill="#FF6723"/>
<path d="M153.425 146.75L148.7 153.8C146.9 156.575 145.925 159.725 145.925 163.025V200.225C141.448 197.993 137.68 194.559 135.044 190.307C132.408 186.055 131.008 181.153 131 176.15V158H121.55C110.225 158 101 148.775 101 137.45V125.9C101 122.9 103.4 120.5 106.4 120.5H116L120.575 129.575C122.375 133.175 126.05 135.5 130.1 135.5H147.35C153.2 135.5 156.65 141.95 153.425 146.75ZM168.425 188H217.775C226.025 188 232.775 194.75 232.775 203H168.425V188Z" fill="#FFDEA7"/>
<path d="M143.375 129.125C141.875 127.625 141.875 125.3 143.375 123.8L153.05 114.125C154.55 112.625 156.875 112.625 158.375 114.125C159.875 115.625 159.875 117.95 158.375 119.45L148.625 129.125C147.2 130.55 144.8 130.55 143.375 129.125ZM123.5 124.25C123.5 126.35 125.15 128 127.25 128C129.35 128 131 126.35 131 124.25V120.5C131 118.4 129.35 116.75 127.25 116.75C125.15 116.75 123.5 118.4 123.5 120.5V124.25ZM294.725 150.5H281.075V165.5H296V158C296.004 155.446 295.573 152.91 294.725 150.5ZM281 180.5H296V195.5H281V180.5ZM303.5 210.5C300.65 210.5 298.25 208.925 296.9 206.6V224.525C299 225.125 301.25 225.5 303.5 225.5C307.625 225.5 311 222.125 311 218C311 213.875 307.625 210.5 303.5 210.5ZM188.45 133.025C190.1 134.6 192.275 135.5 194.525 135.5H198.5V158C198.5 162.125 195.125 165.5 191 165.5C186.875 165.5 183.5 162.125 183.5 158V128L188.45 133.025ZM213.5 135.5V158C213.5 162.125 216.875 165.5 221 165.5C225.125 165.5 228.5 162.125 228.5 158V135.5H213.5ZM243.5 158V135.5H258.5V158C258.5 162.125 255.125 165.5 251 165.5C246.875 165.5 243.5 162.125 243.5 158ZM106.4 120.5C103.4 120.5 101 122.9 101 125.9V135.5L113.675 120.5H106.4ZM232.7 203H262.25C264.35 203 266 204.65 266 206.75C266 208.85 264.35 210.5 262.25 210.5H240.2L232.7 203ZM161 206.75C161 204.65 159.35 203 157.25 203H145.925V210.5H157.25C159.35 210.5 161 208.85 161 206.75ZM157.25 217.925C159.35 217.925 161 219.575 161 221.675C161 223.775 159.35 225.425 157.25 225.425H145.925V217.925H157.25ZM266 221.675C266 219.575 264.35 217.925 262.25 217.925H247.625L250.7 221L249.5 225.5H262.25C264.35 225.5 266 223.85 266 221.75V221.675ZM155.9 129.95C154.4 131.45 154.4 133.775 155.9 135.275C157.325 136.7 159.725 136.7 161.15 135.275L164.6 131.9C166.1 130.4 166.1 128.075 164.6 126.575C163.1 125.075 160.775 125.075 159.275 126.575L155.9 129.95Z" fill="#212121"/>
<path fill-rule="evenodd" clip-rule="evenodd" d="M240.889 51.7778L219.5 30.3889L198.111 51.7778H210.944V68.8889H228.056V51.7778H240.889ZM255.733 74.7922C257.102 74.065 258 72.6533 258 71.0278V32.5278C258 30.9022 257.102 29.4905 255.733 28.7633L221.938 9.77C221.254 9.25667 220.398 9 219.5 9C218.602 9 217.746 9.25667 217.062 9.77L183.267 28.7633C181.898 29.4905 181 30.9022 181 32.5278V71.0278C180.998 71.8025 181.208 72.563 181.608 73.2267C182.007 73.8904 182.581 74.4318 183.267 74.7922L217.062 93.7855C217.746 94.2989 218.602 94.5555 219.5 94.5555C220.398 94.5555 221.254 94.2989 221.938 93.7855L255.733 74.7922ZM189.556 35.0517L219.5 18.1972L249.444 35.0517V68.5039L219.5 85.3583L189.556 68.5039V35.0517ZM192.293 103.453C192.293 102.886 191.834 102.427 191.267 102.427C190.7 102.427 190.24 102.886 190.24 103.453V126.04C190.24 126.607 190.7 127.067 191.267 127.067C191.834 127.067 192.293 126.607 192.293 126.04V103.453ZM220.013 110.64C220.58 110.64 221.04 111.1 221.04 111.667V134.253C221.04 134.82 220.58 135.28 220.013 135.28C219.446 135.28 218.987 134.82 218.987 134.253V111.667C218.987 111.1 219.446 110.64 220.013 110.64ZM237.467 103.453C237.467 102.886 237.007 102.427 236.44 102.427C235.873 102.427 235.413 102.886 235.413 103.453V115.773C235.413 116.34 235.873 116.8 236.44 116.8C237.007 116.8 237.467 116.34 237.467 115.773V103.453ZM205.64 114.747C206.207 114.747 206.667 115.206 206.667 115.773V128.093C206.667 128.66 206.207 129.12 205.64 129.12C205.073 129.12 204.613 128.66 204.613 128.093V115.773C204.613 115.206 205.073 114.747 205.64 114.747ZM249.787 103.453C249.787 102.886 249.327 102.427 248.76 102.427C248.193 102.427 247.733 102.886 247.733 103.453V126.04C247.733 126.607 248.193 127.067 248.76 127.067C249.327 127.067 249.787 126.607 249.787 126.04V103.453Z" fill="#90EE90"/>
<path d="M80.7492 342.535C80.7492 316.015 80.5788 300.165 80.2379 294.984C79.6243 285.576 79.3176 280.088 79.3176 278.52C79.3176 276.952 79.7607 275.69 80.647 274.736C81.6014 273.782 82.7263 273.304 84.0216 273.304C85.3169 273.304 86.3736 273.782 87.1917 274.736C88.0097 275.69 88.4188 276.883 88.4188 278.315C88.4188 282.61 88.2483 288.439 87.9075 295.802C87.2257 313.118 86.8849 326.003 86.8849 334.456C86.8849 336.502 87.5325 338.479 88.8278 340.387C90.1913 342.228 90.873 343.898 90.873 345.398C90.873 346.898 90.3617 348.159 89.3391 349.182C88.3165 350.136 87.1576 350.614 85.8623 350.614C82.4536 350.614 80.7492 347.921 80.7492 342.535ZM100.367 314.311C98.7993 311.516 98.0153 309.437 98.0153 308.073C98.0153 306.641 98.4244 305.517 99.2425 304.698C100.061 303.812 101.254 303.369 102.822 303.369C104.39 303.369 105.855 304.664 107.219 307.255C108.582 309.777 110.9 315.095 114.173 323.208C117.445 331.252 119.797 337.32 121.229 341.41L122.047 343.66C124.433 342.16 127.057 338.683 129.921 333.229C132.852 327.707 134.318 322.73 134.318 318.299C134.318 316.799 133.909 314.993 133.091 312.879C132.273 310.698 131.864 309.027 131.864 307.869C131.864 306.71 132.307 305.687 133.193 304.801C134.147 303.846 135.409 303.369 136.977 303.369C138.545 303.369 139.806 304.119 140.76 305.619C141.783 307.05 142.294 309.539 142.294 313.084C142.294 316.561 141.067 321.299 138.613 327.298C136.159 333.297 133.125 338.581 129.512 343.149C125.558 348.125 122.047 350.614 118.979 350.614C116.797 350.614 115.025 348.807 113.661 345.194C108.957 332.173 104.526 321.878 100.367 314.311ZM151.054 342.535C151.054 316.015 150.883 300.165 150.542 294.984C149.929 285.576 149.622 280.088 149.622 278.52C149.622 276.952 150.065 275.69 150.951 274.736C151.906 273.782 153.031 273.304 154.326 273.304C155.621 273.304 156.678 273.782 157.496 274.736C158.314 275.69 158.723 276.883 158.723 278.315C158.723 282.61 158.553 288.439 158.212 295.802C157.53 313.118 157.189 326.003 157.189 334.456C157.189 336.502 157.837 338.479 159.132 340.387C160.496 342.228 161.177 343.898 161.177 345.398C161.177 346.898 160.666 348.159 159.643 349.182C158.621 350.136 157.462 350.614 156.167 350.614C152.758 350.614 151.054 347.921 151.054 342.535Z" fill="#1E1E1E"/>
<path d="M204.929 278.826C210.997 278.826 216.553 280.054 221.598 282.508C226.711 284.894 229.267 287.655 229.267 290.791C229.267 292.154 228.79 293.313 227.835 294.268C226.949 295.222 225.858 295.699 224.563 295.699C223.268 295.699 221.973 295.188 220.677 294.166C219.382 293.143 218.121 292.018 216.894 290.791C215.735 289.496 213.86 288.337 211.269 287.314C208.747 286.291 205.747 285.78 202.27 285.78C194.498 285.78 188.363 288.234 183.863 293.143C179.432 297.983 177.216 304.596 177.216 312.982C177.216 321.299 179.671 328.491 184.579 334.559C189.488 340.626 195.691 343.66 203.191 343.66C210.758 343.66 217.643 340.047 223.847 332.82C225.211 331.184 226.199 330.366 226.813 330.366C227.495 330.366 228.006 330.605 228.347 331.082C228.756 331.491 228.96 332.138 228.96 333.025C228.96 333.911 228.245 335.343 226.813 337.32C225.449 339.229 223.575 341.206 221.189 343.251C218.871 345.228 215.803 346.966 211.985 348.466C208.235 349.898 204.315 350.614 200.225 350.614C191.226 350.614 183.727 347.409 177.728 341.001C171.797 334.593 168.831 326.344 168.831 316.254C168.831 306.096 172.24 297.336 179.057 289.973C185.943 282.542 194.567 278.826 204.929 278.826ZM269.072 332.513L268.05 309.505C268.05 307.664 268.493 306.198 269.379 305.107C270.333 303.949 271.458 303.369 272.754 303.369C274.049 303.369 275.106 303.914 275.924 305.005C276.742 306.028 277.151 307.459 277.151 309.3C277.151 311.073 276.946 313.595 276.537 316.867C275.719 323.412 275.31 329.275 275.31 334.456C275.31 336.502 275.958 338.479 277.253 340.387C278.617 342.228 279.298 343.898 279.298 345.398C279.298 346.898 278.787 348.159 277.764 349.182C276.742 350.136 275.583 350.614 274.287 350.614C270.879 350.614 269.174 347.921 269.174 342.535C265.97 347.921 261.948 350.614 257.108 350.614C253.222 350.614 250.12 349.216 247.802 346.421C245.552 343.626 243.984 340.217 243.098 336.195L239.212 318.606C238.803 316.629 237.883 314.89 236.451 313.391C235.087 311.823 234.406 310.255 234.406 308.687C234.406 307.119 234.951 305.857 236.042 304.903C237.133 303.88 238.428 303.369 239.928 303.369C243.337 303.369 245.552 306.062 246.575 311.448L250.461 332.82C251.756 339.638 254.994 343.046 260.175 343.046C262.698 343.046 264.777 342.058 266.413 340.081C268.05 338.035 268.936 335.513 269.072 332.513ZM290.856 333.638C290.856 333.638 291.129 327.4 291.674 314.925C291.674 303.812 291.402 295.12 290.856 288.848C290.311 282.576 290.038 279.338 290.038 279.133C290.038 275.247 291.538 273.304 294.538 273.304C298.151 273.304 299.957 276.099 299.957 281.69C299.957 285.03 299.582 290.723 298.832 298.767C298.151 306.812 297.776 312.163 297.708 314.822C300.571 311.277 303.98 308.482 307.934 306.437C311.956 304.392 315.978 303.369 320 303.369C324.091 303.369 327.636 305.039 330.636 308.38C333.703 311.652 335.237 315.64 335.237 320.344C335.237 327.912 332.34 334.865 326.545 341.206C320.75 347.478 314.172 350.614 306.809 350.614C302.241 350.614 298.423 348.977 295.356 345.705C292.356 342.365 290.856 338.342 290.856 333.638ZM302.003 315.947C299.003 318.947 297.503 322.628 297.503 326.991C297.503 331.354 299.003 335.07 302.003 338.138C305.07 341.137 308.752 342.637 313.047 342.637C317.41 342.637 321.057 341.137 323.989 338.138C326.92 335.07 328.386 331.354 328.386 326.991C328.386 322.628 326.92 318.947 323.989 315.947C321.057 312.947 317.41 311.448 313.047 311.448C308.752 311.448 305.07 312.947 302.003 315.947Z" fill="#FF822D"/>
<defs>
<filter id="filter0_d_166_241" x="0" y="0" width="412" height="414" filterUnits="userSpaceOnUse" color-interpolation-filters="sRGB">
<feFlood flood-opacity="0" result="BackgroundImageFix"/>
<feColorMatrix in="SourceAlpha" type="matrix" values="0 0 0 0 0 0 0 0 0 0 0 0 0 0 0 0 0 0 127 0" result="hardAlpha"/>
<feOffset dy="8"/>
<feGaussianBlur stdDeviation="3"/>
<feComposite in2="hardAlpha" operator="out"/>
<feColorMatrix type="matrix" values="0 0 0 0 0.533333 0 0 0 0 0.470588 0 0 0 0 0.501961 0 0 0 0.65 0"/>
<feBlend mode="normal" in2="BackgroundImageFix" result="effect1_dropShadow_166_241"/>
<feBlend mode="normal" in="SourceGraphic" in2="effect1_dropShadow_166_241" result="shape"/>
</filter>
</defs>
</svg>
