<svg width="100" height="100" viewBox="0 0 100 100" fill="none" xmlns="http://www.w3.org/2000/svg">
<path d="M34.5311 14.5312C34.5311 23.2812 29.0624 30.4687 22.3436 30.3125C2.65612 29.8437 10.7811 3.125 10.7811 3.125C17.4999 3.125 34.5311 5.78125 34.5311 14.5312Z" fill="#F29A2E"/>
<path d="M27.0312 16.25C27.0312 20.9375 24.0624 24.6875 20.4687 24.6875C9.9999 24.375 14.2187 10.1562 14.2187 10.1562C17.9687 10.1562 27.0312 11.5625 27.0312 16.25Z" fill="#BC600D"/>
<path d="M65.4688 14.5312C65.4688 23.2812 70.9375 30.4687 77.6562 30.3125C97.3437 29.8437 89.2187 3.125 89.2187 3.125C82.5 3.125 65.4688 5.78125 65.4688 14.5312" fill="#F29A2E"/>
<path d="M72.969 16.25C72.969 20.9375 75.9377 24.6875 79.5315 24.6875C90.0002 24.375 85.7815 10.1562 85.7815 10.1562C82.0315 10.1562 72.969 11.5625 72.969 16.25Z" fill="#BC600D"/>
<path d="M90.625 65.1562C90.625 79.375 9.375 79.375 9.375 65.1562C9.375 5.93749 32.6562 7.49999 50 7.49999C67.3438 7.49999 90.625 5.93749 90.625 65.1562" fill="#F29A2E"/>
<path d="M66.4062 19.6875C62.8125 6.09374 37.1875 5.78124 33.75 19.8437C40.7812 13.5937 59.2187 13.5937 66.4062 19.6875Z" fill="#3E4347"/>
<path d="M61.25 25C58.9063 15.7812 41.25 15.625 38.9062 25C44.6875 20 55.3125 20 61.25 25Z" fill="#3E4347"/>
<path d="M96.875 57.1875C96.5625 42.8125 87.8125 35.625 87.8125 35.625C87.8125 35.625 93.125 88.5937 61.875 62.9688H37.9687C6.875 88.4375 12.1875 35.625 12.1875 35.625C12.1875 35.625 3.4375 42.8125 3.125 57.1875L7.34375 54.6875C7.34375 54.6875 2.96875 64.2187 7.65625 75.9375L12.1875 70.625C12.1875 70.625 13.4375 81.7188 25.4687 87.3438L26.0938 82.5C26.0938 82.5 35.1562 89.6875 50 89.6875C64.8438 89.6875 73.9062 82.5 73.9062 82.5L74.5313 87.3438C86.5625 81.7188 87.8125 70.625 87.8125 70.625L92.3437 75.9375C97.1875 64.2187 92.6562 54.6875 92.6562 54.6875L96.875 57.1875Z" fill="#FFE8BB"/>
<path d="M37.9686 62.9688C37.9686 62.9688 11.5624 82.8125 12.0311 35.625C12.1874 35.625 5.78114 91.7187 37.9686 62.9688ZM62.0311 62.9688C62.0311 62.9688 88.4374 82.8125 87.9686 35.625C87.8124 35.625 94.2186 91.7187 62.0311 62.9688" fill="#3E4347"/>
<path d="M58.7504 45.9375C63.4379 58.75 61.8754 62.8125 61.8754 62.8125L50.1566 66.25L37.8129 62.8125C37.8129 62.8125 36.2504 58.5938 40.9379 45.9375C20.3129 80.1562 39.6879 84.6875 39.6879 84.6875C39.6879 84.6875 38.7504 90.3125 44.6879 95V91.25C44.6879 91.25 45.9379 94.6875 49.6879 96.7188C53.4379 94.6875 54.6879 91.25 54.6879 91.25V95C57.9692 93.125 59.0629 89.2187 59.0629 89.2187L60.4692 92.0313C65.1567 85.3125 63.4379 80.625 62.0317 78.4375C62.0317 78.5938 62.1879 78.5937 62.1879 78.5937C62.1879 78.5937 79.3754 80.1562 58.7504 45.9375" fill="#F5F5F5"/>
<path d="M50.0002 78.2812C49.5315 76.875 48.4377 69.8437 48.594 65.4688H51.2502C51.094 69.375 52.1877 76.4062 52.5002 77.3437L50.0002 78.2812" fill="#3E4347"/>
<path d="M40 84.8438C50.625 74.2188 58.2812 70.9375 62.5 78.75C56.0937 73.75 48.75 82.8125 40 84.8438Z" fill="#3E4347"/>
<path d="M61.5621 62.1875C57.0309 60.1562 42.6559 60.3125 38.2809 62.1875C36.5621 62.9687 41.4059 67.6562 49.8434 67.6562C58.5934 67.6562 63.2809 62.9687 61.5621 62.1875Z" fill="#947151"/>
<path d="M42.6562 43.125C39.2187 65 14.0625 59.5313 14.0625 40.4688C14.0625 30.3125 14.0625 30.3125 29.8438 26.875C45.7813 23.2813 44.0625 35 42.6562 43.125Z" fill="#FFE8BB"/>
<path d="M40.1564 44.2187C38.5939 59.6875 15.7814 57.1875 17.1876 41.7187C17.8126 35.7812 17.8126 35.1562 29.2189 36.4062C40.7814 37.6562 40.6251 38.2812 40.1564 44.2187Z" fill="#3E4347"/>
<path d="M36.7188 43.2813C35.6251 52.6563 19.5313 51.25 20.6251 41.875C21.0938 38.4375 21.0938 38.125 29.0626 38.9063C37.1876 39.6875 37.1876 39.8438 36.7188 43.2813" fill="white"/>
<path d="M35.4688 41.4063C35.4688 43.5938 33.75 45.3125 31.7187 45.3125C29.6875 45.3125 27.9688 43.5938 27.9688 41.4063C27.9688 39.2188 29.6875 37.9688 31.7187 37.9688C33.75 37.9688 35.4688 39.375 35.4688 41.4063Z" fill="#3E4347"/>
<path d="M57.188 43.125C60.6255 64.8437 85.7817 59.5312 85.7817 40.3125C85.7817 30.1562 85.7817 30.1562 70.0005 26.7187C54.2192 23.2812 55.938 35 57.188 43.125" fill="#FFE8BB"/>
<path d="M59.8437 44.2187C61.4062 59.6875 84.2187 57.1875 82.8124 41.7187C82.1874 35.7812 82.1874 35.1562 70.7812 36.4062C59.2187 37.6562 59.2187 38.2812 59.8437 44.2187Z" fill="#3E4347"/>
<path d="M63.125 43.2813C64.2188 52.6563 80.3125 51.25 79.2188 41.875C78.75 38.4375 78.75 38.125 70.7813 38.9063C62.8125 39.6875 62.8125 39.8438 63.125 43.2813" fill="white"/>
<path d="M70.6252 41.4063C70.6252 43.5938 72.344 45.3125 74.3752 45.3125C76.4065 45.3125 78.1252 43.5938 78.1252 41.4063C78.1252 39.2188 76.4065 37.9688 74.3752 37.9688C72.344 37.9688 70.6252 39.375 70.6252 41.4063Z" fill="#3E4347"/>
</svg>
